<svg xmlns="http://www.w3.org/2000/svg" width="120" height="150" viewBox="0 0 120 150">
<rect width="120" height="150" fill="#faf9f7" rx="6"/>
<text x="60" y="18" text-anchor="middle" font-family="Arial,sans-serif" font-size="13" font-weight="700" fill="#111827">Dm7</text>
<rect x="22" y="36" width="80" height="4" fill="#111827"/>
<line x1="22" y1="60" x2="102" y2="60" stroke="#ccc" stroke-width="1"/>
<line x1="22" y1="80" x2="102" y2="80" stroke="#ccc" stroke-width="1"/>
<line x1="22" y1="100" x2="102" y2="100" stroke="#ccc" stroke-width="1"/>
<line x1="22" y1="120" x2="102" y2="120" stroke="#ccc" stroke-width="1"/>
<line x1="22" y1="140" x2="102" y2="140" stroke="#ccc" stroke-width="1"/>
<line x1="22" y1="40" x2="22" y2="140" stroke="#888" stroke-width="1.2"/>
<line x1="38" y1="40" x2="38" y2="140" stroke="#888" stroke-width="1.2"/>
<line x1="54" y1="40" x2="54" y2="140" stroke="#888" stroke-width="1.2"/>
<line x1="70" y1="40" x2="70" y2="140" stroke="#888" stroke-width="1.2"/>
<line x1="86" y1="40" x2="86" y2="140" stroke="#888" stroke-width="1.2"/>
<line x1="102" y1="40" x2="102" y2="140" stroke="#888" stroke-width="1.2"/>
<text x="102" y="28" text-anchor="middle" font-size="11" fill="#ef4444" font-weight="700">×</text>
<text x="86" y="28" text-anchor="middle" font-size="11" fill="#ef4444" font-weight="700">×</text>
<circle cx="70" cy="28" r="5" fill="none" stroke="#374151" stroke-width="1.5"/>
<circle cx="54" cy="70" r="7" fill="#2563eb"/>
<circle cx="38" cy="50" r="7" fill="#2563eb"/>
<circle cx="22" cy="50" r="7" fill="#2563eb"/>
</svg>