<svg xmlns="http://www.w3.org/2000/svg" width="160" height="210" viewBox="0 0 160 210">
<rect width="160" height="210" fill="#faf9f7" rx="8"/>
<text x="80" y="24" text-anchor="middle" font-family="Arial,sans-serif" font-size="16" font-weight="700" fill="#111827">Cmaj7</text>
<text x="20" y="66" text-anchor="end" font-size="11" fill="#666">2fr</text>
<line x1="30" y1="79" x2="130" y2="79" stroke="#ccc" stroke-width="1.2"/>
<line x1="30" y1="105" x2="130" y2="105" stroke="#ccc" stroke-width="1.2"/>
<line x1="30" y1="131" x2="130" y2="131" stroke="#ccc" stroke-width="1.2"/>
<line x1="30" y1="157" x2="130" y2="157" stroke="#ccc" stroke-width="1.2"/>
<line x1="30" y1="183" x2="130" y2="183" stroke="#ccc" stroke-width="1.2"/>
<line x1="30" y1="53" x2="30" y2="183" stroke="#888" stroke-width="1.5"/>
<line x1="50" y1="53" x2="50" y2="183" stroke="#888" stroke-width="1.5"/>
<line x1="70" y1="53" x2="70" y2="183" stroke="#888" stroke-width="1.5"/>
<line x1="90" y1="53" x2="90" y2="183" stroke="#888" stroke-width="1.5"/>
<line x1="110" y1="53" x2="110" y2="183" stroke="#888" stroke-width="1.5"/>
<line x1="130" y1="53" x2="130" y2="183" stroke="#888" stroke-width="1.5"/>
<text x="30" y="197" text-anchor="middle" font-size="9" fill="#9ca3af">E</text>
<text x="50" y="197" text-anchor="middle" font-size="9" fill="#9ca3af">A</text>
<text x="70" y="197" text-anchor="middle" font-size="9" fill="#9ca3af">D</text>
<text x="90" y="197" text-anchor="middle" font-size="9" fill="#9ca3af">G</text>
<text x="110" y="197" text-anchor="middle" font-size="9" fill="#9ca3af">B</text>
<text x="130" y="197" text-anchor="middle" font-size="9" fill="#9ca3af">e</text>
<text x="30" y="36" text-anchor="middle" font-size="14" fill="#ef4444" font-weight="700">×</text>
<circle cx="50" cy="92" r="9" fill="#1e3a5f"/>
<circle cx="70" cy="66" r="9" fill="#1e3a5f"/>
<circle cx="90" cy="36" r="7" fill="none" stroke="#374151" stroke-width="2"/>
<circle cx="110" cy="36" r="7" fill="none" stroke="#374151" stroke-width="2"/>
<circle cx="130" cy="36" r="7" fill="none" stroke="#374151" stroke-width="2"/>
</svg>