<svg xmlns="http://www.w3.org/2000/svg" width="260" height="165" viewBox="0 0 260 165">
<rect width="260" height="165" fill="#faf9f7" rx="8"/>
<text x="130" y="28" text-anchor="middle" font-family="Arial,sans-serif" font-size="16" font-weight="700" fill="#111827">F</text>
<rect x="10.0" y="48" width="15.6" height="90" fill="#f59e0b" stroke="#9ca3af" stroke-width="1" rx="3"/>
<text x="18.6" y="130" text-anchor="middle" font-size="10" fill="#92400e" font-weight="700">C</text>
<rect x="27.1" y="48" width="15.6" height="90" fill="white" stroke="#9ca3af" stroke-width="1" rx="3"/>
<rect x="44.3" y="48" width="15.6" height="90" fill="white" stroke="#9ca3af" stroke-width="1" rx="3"/>
<rect x="61.4" y="48" width="15.6" height="90" fill="#f59e0b" stroke="#9ca3af" stroke-width="1" rx="3"/>
<text x="70.0" y="130" text-anchor="middle" font-size="10" fill="#92400e" font-weight="700">F</text>
<rect x="78.6" y="48" width="15.6" height="90" fill="white" stroke="#9ca3af" stroke-width="1" rx="3"/>
<rect x="95.7" y="48" width="15.6" height="90" fill="#f59e0b" stroke="#9ca3af" stroke-width="1" rx="3"/>
<text x="104.3" y="130" text-anchor="middle" font-size="10" fill="#92400e" font-weight="700">A</text>
<rect x="112.9" y="48" width="15.6" height="90" fill="white" stroke="#9ca3af" stroke-width="1" rx="3"/>
<rect x="130.0" y="48" width="15.6" height="90" fill="#f59e0b" stroke="#9ca3af" stroke-width="1" rx="3"/>
<text x="138.6" y="130" text-anchor="middle" font-size="10" fill="#92400e" font-weight="700">C</text>
<rect x="147.1" y="48" width="15.6" height="90" fill="white" stroke="#9ca3af" stroke-width="1" rx="3"/>
<rect x="164.3" y="48" width="15.6" height="90" fill="white" stroke="#9ca3af" stroke-width="1" rx="3"/>
<rect x="181.4" y="48" width="15.6" height="90" fill="#f59e0b" stroke="#9ca3af" stroke-width="1" rx="3"/>
<text x="190.0" y="130" text-anchor="middle" font-size="10" fill="#92400e" font-weight="700">F</text>
<rect x="198.6" y="48" width="15.6" height="90" fill="white" stroke="#9ca3af" stroke-width="1" rx="3"/>
<rect x="215.7" y="48" width="15.6" height="90" fill="#f59e0b" stroke="#9ca3af" stroke-width="1" rx="3"/>
<text x="224.3" y="130" text-anchor="middle" font-size="10" fill="#92400e" font-weight="700">A</text>
<rect x="232.9" y="48" width="15.6" height="90" fill="white" stroke="#9ca3af" stroke-width="1" rx="3"/>
<rect x="16.2" y="48" width="10.6" height="55.8" fill="#1e293b" rx="3"/>
<rect x="33.3" y="48" width="10.6" height="55.8" fill="#1e293b" rx="3"/>
<rect x="67.6" y="48" width="10.6" height="55.8" fill="#1e293b" rx="3"/>
<rect x="84.7" y="48" width="10.6" height="55.8" fill="#1e293b" rx="3"/>
<rect x="101.9" y="48" width="10.6" height="55.8" fill="#1e293b" rx="3"/>
<rect x="136.2" y="48" width="10.6" height="55.8" fill="#1e293b" rx="3"/>
<rect x="153.3" y="48" width="10.6" height="55.8" fill="#1e293b" rx="3"/>
<rect x="187.6" y="48" width="10.6" height="55.8" fill="#1e293b" rx="3"/>
<rect x="204.7" y="48" width="10.6" height="55.8" fill="#1e293b" rx="3"/>
<rect x="221.9" y="48" width="10.6" height="55.8" fill="#1e293b" rx="3"/>
</svg>