<svg xmlns="http://www.w3.org/2000/svg" width="200" height="130" viewBox="0 0 200 130">
<rect width="200" height="130" fill="#faf9f7" rx="6"/>
<text x="100" y="22" text-anchor="middle" font-family="Arial,sans-serif" font-size="13" font-weight="700" fill="#111827">Em</text>
<rect x="10.0" y="40" width="11.9" height="70" fill="white" stroke="#d1d5db" stroke-width="1" rx="2"/>
<rect x="22.9" y="40" width="11.9" height="70" fill="white" stroke="#d1d5db" stroke-width="1" rx="2"/>
<rect x="35.7" y="40" width="11.9" height="70" fill="#fbbf24" stroke="#d1d5db" stroke-width="1" rx="2"/>
<text x="42.1" y="104" text-anchor="middle" font-size="8" fill="#92400e" font-weight="700">E</text>
<rect x="48.6" y="40" width="11.9" height="70" fill="white" stroke="#d1d5db" stroke-width="1" rx="2"/>
<rect x="61.4" y="40" width="11.9" height="70" fill="#fbbf24" stroke="#d1d5db" stroke-width="1" rx="2"/>
<text x="67.9" y="104" text-anchor="middle" font-size="8" fill="#92400e" font-weight="700">G</text>
<rect x="74.3" y="40" width="11.9" height="70" fill="white" stroke="#d1d5db" stroke-width="1" rx="2"/>
<rect x="87.1" y="40" width="11.9" height="70" fill="#fbbf24" stroke="#d1d5db" stroke-width="1" rx="2"/>
<text x="93.6" y="104" text-anchor="middle" font-size="8" fill="#92400e" font-weight="700">B</text>
<rect x="100.0" y="40" width="11.9" height="70" fill="white" stroke="#d1d5db" stroke-width="1" rx="2"/>
<rect x="112.9" y="40" width="11.9" height="70" fill="white" stroke="#d1d5db" stroke-width="1" rx="2"/>
<rect x="125.7" y="40" width="11.9" height="70" fill="#fbbf24" stroke="#d1d5db" stroke-width="1" rx="2"/>
<text x="132.1" y="104" text-anchor="middle" font-size="8" fill="#92400e" font-weight="700">E</text>
<rect x="138.6" y="40" width="11.9" height="70" fill="white" stroke="#d1d5db" stroke-width="1" rx="2"/>
<rect x="151.4" y="40" width="11.9" height="70" fill="#fbbf24" stroke="#d1d5db" stroke-width="1" rx="2"/>
<text x="157.9" y="104" text-anchor="middle" font-size="8" fill="#92400e" font-weight="700">G</text>
<rect x="164.3" y="40" width="11.9" height="70" fill="white" stroke="#d1d5db" stroke-width="1" rx="2"/>
<rect x="177.1" y="40" width="11.9" height="70" fill="#fbbf24" stroke="#d1d5db" stroke-width="1" rx="2"/>
<text x="183.6" y="104" text-anchor="middle" font-size="8" fill="#92400e" font-weight="700">B</text>
<rect x="14.8" y="40" width="7.7" height="42.0" fill="#1e293b" rx="2"/>
<rect x="27.6" y="40" width="7.7" height="42.0" fill="#1e293b" rx="2"/>
<rect x="53.3" y="40" width="7.7" height="42.0" fill="#1e293b" rx="2"/>
<rect x="66.2" y="40" width="7.7" height="42.0" fill="#1e293b" rx="2"/>
<rect x="79.0" y="40" width="7.7" height="42.0" fill="#1e293b" rx="2"/>
<rect x="104.8" y="40" width="7.7" height="42.0" fill="#1e293b" rx="2"/>
<rect x="117.6" y="40" width="7.7" height="42.0" fill="#1e293b" rx="2"/>
<rect x="143.3" y="40" width="7.7" height="42.0" fill="#1e293b" rx="2"/>
<rect x="156.2" y="40" width="7.7" height="42.0" fill="#1e293b" rx="2"/>
<rect x="169.0" y="40" width="7.7" height="42.0" fill="#1e293b" rx="2"/>
</svg>