<?xml version="1.0" encoding="UTF-8" standalone="no"?>
<!-- Created with Inkscape (http://www.inkscape.org/) -->

<svg
   width="297mm"
   height="210mm"
   viewBox="0 0 297 210"
   version="1.1"
   id="svg1"
   xml:space="preserve"
   inkscape:export-filename="logo_cooltakestudio.svg"
   inkscape:export-xdpi="96"
   inkscape:export-ydpi="96"
   xmlns:inkscape="http://www.inkscape.org/namespaces/inkscape"
   xmlns:sodipodi="http://sodipodi.sourceforge.net/DTD/sodipodi-0.dtd"
   xmlns="http://www.w3.org/2000/svg"
   xmlns:svg="http://www.w3.org/2000/svg"><sodipodi:namedview
     id="namedview1"
     pagecolor="#ffffff"
     bordercolor="#000000"
     borderopacity="0.25"
     inkscape:showpageshadow="2"
     inkscape:pageopacity="0.0"
     inkscape:pagecheckerboard="0"
     inkscape:deskcolor="#d1d1d1"
     inkscape:document-units="mm"><inkscape:page
       x="0"
       y="0"
       width="297"
       height="210"
       id="page2"
       margin="0"
       bleed="0" /></sodipodi:namedview><defs
     id="defs1"><linearGradient
       id="swatch18"
       inkscape:swatch="solid"><stop
         style="stop-color:#ffffff;stop-opacity:1;"
         offset="0"
         id="stop19" /></linearGradient><linearGradient
       id="swatch8"
       inkscape:swatch="solid"><stop
         style="stop-color:#0050ff;stop-opacity:1;"
         offset="0"
         id="stop8" /></linearGradient></defs><g
     id="g1"
     transform="matrix(0.32683223,0,0,0.32683223,0.5507297,33.769866)"
     style="fill:#4984f6;fill-opacity:1"><path
       style="display:inline;fill:#4984f6;fill-opacity:1;stroke:none;stroke-opacity:1"
       d="m 124.28833,0.70177843 -3.28226,8.88140317 h 19.3074 5.21299 l 2.02742,-0.198435 1.13893,-2.3115265 2.4328,-6.37144167 H 124.28833 M 119.65455,20.5884 h 14.48055 l 5.27111,-0.198436 1.3299,-2.890748 2.85961,-7.336812 h -14.48054 l -5.28078,0.198436 -1.28374,2.697674 -2.89611,7.529886 M 149.19487,10.162404 145.14032,20.5884 h 14.48055 l 5.30967,-0.198436 1.33678,-2.890748 2.81417,-7.336812 H 149.19487 M 90.114228,31.786692 h 14.480552 l 5.28078,-0.198436 1.28374,-2.697674 2.89611,-7.529886 H 99.574854 l -5.2711,0.198436 -1.329918,2.890748 -2.859608,7.336812 m 25.292692,0 h 14.28748 l 5.32532,-0.198436 1.31622,-2.697674 2.81908,-7.529886 h -14.28747 l -5.32533,0.198436 -1.31635,2.697674 -2.81895,7.529886 m 25.48577,0 h 14.48055 l 5.2711,-0.198436 1.29341,-2.890748 2.89611,-7.336812 h -14.48055 l -5.3076,0.198436 -1.25691,2.697674 -2.89611,7.529886 M 85.866601,42.984983 h 14.480549 l 5.28078,-0.198436 1.28374,-2.697674 2.89611,-7.722959 H 95.5203 l -5.325325,0.198435 -1.441945,3.083822 -2.886429,7.336812 m 25.292699,0 h 14.28747 l 5.32533,-0.198436 1.39308,-2.890748 2.93529,-7.529885 h -14.48055 l -5.28078,0.198435 -1.28373,2.697674 -2.89611,7.72296 m 29.15417,-10.619069 -4.05456,10.619069 h 14.48055 l 5.27111,-0.198436 1.29341,-2.890748 2.89611,-7.529885 h -19.88662 m 18.34203,10.619069 h 26.83728 l 3.28226,-8.881403 h -19.3074 c -1.72816,0 -5.80905,-0.758768 -7.25607,0.198435 -0.64346,0.425649 -0.89697,1.627318 -1.15725,2.311526 -0.79486,2.089546 -1.88329,4.195954 -2.39882,6.371442 M 56.519356,53.990201 h 19.88662 L 80.460529,43.564205 H 65.979981 l -5.309688,0.198436 -1.29133,2.697674 -2.859607,7.529886 m 54.253794,-10.425996 -3.86148,10.425996 h 14.28747 l 5.32533,-0.198436 1.27837,-2.697674 2.85693,-7.529886 h -19.88662 m 21.23814,10.425996 h 14.48054 l 5.27051,-0.198436 1.29401,-2.890748 2.89611,-7.336812 h -14.48055 l -5.30968,0.198436 -1.25483,2.697674 -2.89611,7.529886 m 25.09961,0 h 14.48055 l 5.28078,-0.198436 1.28374,-2.697674 2.89611,-7.529886 h -14.48055 l -5.27111,0.198436 -1.3299,2.890748 -2.85962,7.336812 m -78.967258,0 h 19.500472 5.212996 l 1.99853,-0.198436 1.20657,-2.5046 2.39405,-6.178368 H 88.955785 83.742787 l -1.988842,0.198436 -1.177364,2.5046 -2.432939,6.178368 M 26.20674,65.188492 H 46.093361 L 50.147914,54.569423 H 35.667365 c 0,0 -3.812486,-0.783393 -5.2711,0.198436 -0.876822,0.59021 -1.303099,2.890748 -1.303099,2.890748 L 26.20674,65.188492 M 56.133208,54.569423 52.078654,65.188492 h 14.480549 l 5.2711,-0.198435 1.303096,-2.890749 2.886429,-7.529885 H 56.133208 M 77.178272,65.188492 H 91.65882 l 5.307602,-0.198435 1.256914,-2.697675 2.896114,-7.722959 H 86.831971 l -5.325326,0.198436 -1.355241,2.890748 -2.973132,7.529885 m 25.292698,0 h 14.28747 l 5.32533,-0.198435 1.39368,-2.890749 2.93469,-7.529885 h -14.48055 l -5.28078,0.198436 -1.34526,2.890748 -2.83458,7.529885 m 29.15417,-10.619069 -4.05456,10.619069 h 14.48055 l 5.27111,-0.198435 1.3299,-2.890749 2.85962,-7.529885 h -19.88662 m 21.04506,10.619069 h 14.48055 l 5.30968,-0.198435 1.33677,-2.890749 2.81418,-7.529885 H 162.3239 l -5.30968,0.198436 -1.37074,2.890748 -2.97328,7.529885 m 25.29269,0 h 19.88662 l 4.05456,-10.619069 h -14.48055 l -5.28078,0.198436 -1.24516,2.697674 -2.93469,7.722959 M 51.692506,65.767714 47.831026,76.19371 h 14.287475 l 5.309688,-0.198436 1.293409,-2.697674 2.857528,-7.529886 H 51.692506 M 72.930644,76.19371 h 19.88662 l 3.86148,-10.425996 H 82.391269 l -5.309688,0.198436 -1.291329,2.697674 -2.859608,7.529886 m 25.099618,0 h 14.480548 l 5.28078,-0.198436 1.41529,-3.083822 2.76456,-7.143738 h -14.48055 l -5.27111,0.198436 -1.33199,2.890748 -2.857528,7.336812 m 50.392308,0 h 19.88662 l 4.05456,-10.425996 H 157.8832 l -5.30968,0.198436 -1.33677,2.890748 -2.81418,7.336812 m 25.09962,0 h 14.48055 l 5.28078,-0.198436 1.28374,-2.697674 2.89611,-7.529886 h -14.48055 l -5.27111,0.198436 -1.3299,2.890748 -2.85962,7.336812 m -50.77846,-8.881404 -3.28225,8.881404 h 19.3074 5.21299 l 2.02742,-0.198436 1.13893,-2.311526 2.4328,-6.371442 H 122.74373 M 18.676855,76.386784 h 19.500472 5.212998 l 1.998523,-0.198436 1.206565,-2.5046 2.394057,-6.178368 H 29.488998 24.276001 l -1.988841,0.198436 -1.177364,2.5046 -2.432941,6.178368 M 3.9287473,78.198935 v 0.772296 H 207.42872 V 78.198935 H 3.9287473 M 16.478556,91.402452 h 14.480549 l 5.2711,-0.198436 1.293415,-2.890748 2.89611,-7.529886 H 25.939181 l -5.270502,0.198436 -1.294013,2.890748 -2.89611,7.529886 m 54.060715,-10.61907 -4.054553,10.61907 h 14.480548 l 5.2711,-0.198436 1.329917,-2.890748 2.859608,-7.529886 h -19.88662 m 21.045064,10.61907 h 14.480545 l 5.30968,-0.198436 1.33678,-2.890748 2.81417,-7.529886 h -14.28748 l -5.309683,0.198436 -1.370733,2.890748 -2.973279,7.529886 m 25.292695,0 h 19.88662 l 4.05455,-10.61907 h -14.48055 l -5.28078,0.198436 -1.24515,2.697674 -2.93469,7.72296 m 29.15417,-10.61907 -4.05456,10.61907 h 14.48055 l 5.27111,-0.198436 1.25483,-2.697674 2.93469,-7.72296 H 146.0312 M 38.295916,91.402452 h 19.307398 5.212998 l 2.02743,-0.198436 1.193302,-2.5046 2.378413,-6.178368 H 48.721911 43.701988 l -1.988245,0.198436 -1.062354,2.311526 -2.355473,6.371442 m 125.691164,0 h 26.83728 l 3.28226,-8.881404 h -19.3074 -5.213 l -2.02741,0.198436 -1.13893,2.311526 -2.4328,6.371442 M 16.285482,91.981674 12.230928,102.40767 h 14.480549 l 5.309685,-0.19843 1.336767,-2.890755 2.814173,-7.336811 h -19.88662 m 20.85199,10.425996 h 14.480549 l 5.2711,-0.19843 1.331997,-2.890755 2.857528,-7.336811 H 46.598097 l -5.28078,0.198435 -1.415283,3.083822 -2.764562,7.143739 M 66.291644,91.981674 62.23709,102.40767 h 14.480549 l 5.309687,-0.19843 1.29133,-2.697681 2.859608,-7.529885 H 66.291644 M 87.529782,102.40767 H 107.4164 l 3.86148,-10.425996 H 96.990407 l -5.309688,0.198435 -1.293409,2.697674 -2.857528,7.529887 m 25.099618,0 h 14.48055 l 5.28078,-0.19843 1.32232,-2.890755 2.85752,-7.336811 h -14.48055 l -5.28078,0.198435 -1.32231,2.890748 -2.85753,7.336813 m 29.15417,-10.425996 -3.86148,10.425996 h 14.28748 l 5.30967,-0.19843 1.29342,-2.697681 2.85753,-7.529885 h -19.88662 m 25.09962,0 -3.86148,10.425996 h 14.28747 l 5.32533,-0.19843 1.27837,-2.697681 2.85693,-7.529885 H 166.88319 M 36.944398,102.98689 32.889845,113.60596 h 14.480548 l 5.2711,-0.19843 1.254834,-2.69768 2.934691,-7.72296 h -19.88662 m 21.238138,10.61907 h 14.287475 l 5.309688,-0.19843 1.291329,-2.69768 2.859608,-7.72296 H 67.643161 l -5.309687,0.19844 -1.29341,2.69767 -2.857528,7.72296 m 25.099618,0 h 19.886616 l 4.05456,-10.61907 H 92.742779 l -5.2711,0.19844 -1.254834,2.69767 -2.934691,7.72296 m 29.154176,-10.61907 -4.05456,10.61907 h 14.48055 l 5.28078,-0.19843 1.24515,-2.69768 2.9347,-7.72296 h -19.88662 m 21.23813,10.61907 h 14.28748 l 5.30967,-0.19843 1.37075,-2.89075 2.97328,-7.52989 h -14.48055 l -5.30968,0.19844 -1.33677,2.89075 -2.81418,7.52988 m -79.932625,11.00522 h 14.480548 l 5.2711,-0.19843 1.293416,-2.89075 2.896109,-7.33681 H 63.20246 l -5.307602,0.19843 -1.256914,2.69768 -2.896109,7.52988 m 25.099617,0 h 14.480549 l 5.280781,-0.19843 1.283734,-2.69768 2.896114,-7.52988 H 88.302077 l -5.2711,0.19843 -1.303096,2.89075 -2.886429,7.33681 m 25.292688,0 h 14.28748 l 5.32532,-0.19843 1.31622,-2.69768 2.81908,-7.52988 h -14.28747 l -5.32533,0.19843 -1.31621,2.69768 -2.81909,7.52988 m 25.09962,0 h 14.48055 l 5.27111,-0.19843 1.30309,-2.89075 2.88643,-7.33681 h -14.48055 l -5.28078,0.19843 -1.28374,2.69768 -2.89611,7.52988 m -79.932627,11.19829 h 14.480549 l 5.2711,-0.19843 1.331997,-2.89075 2.857528,-7.33681 H 58.761758 l -5.280781,0.19843 -1.34526,2.89075 -2.834584,7.33681 m 29.154171,-10.42599 -4.054553,10.42599 h 14.480548 l 5.309688,-0.19843 1.29133,-2.69768 2.859608,-7.52988 H 78.455304 m 25.292696,0 -3.861484,10.42599 h 14.287474 l 5.30968,-0.19843 1.29342,-2.69768 2.85753,-7.52988 H 103.748 m -33.594877,21.62428 h 14.287475 l 5.325325,-0.19843 1.355242,-2.89075 2.973132,-7.52989 H 79.613748 l -5.307602,0.19844 -1.256913,2.69767 -2.89611,7.72296 m 25.292692,0 h 14.287475 l 5.32533,-0.19843 1.35524,-2.89075 2.97313,-7.52989 h -14.48055 l -5.307602,0.19844 -1.256913,2.69767 -2.89611,7.72296 m -29.540319,11.00522 h 14.480548 l 5.2711,-0.19843 1.293416,-2.89075 2.896109,-7.33681 H 75.366121 l -5.307602,0.19843 -1.256914,2.69768 z"
       id="path1"
       sodipodi:nodetypes="cccccccccccccccccccccccccccccccccccccccccccccccccccccccccccccccccccccccccccccccsssccccccccccccccccccccccccccccccccccccccccccccccccaccccccccccccccccccccccccccccccccccccccccccccccccccccccccccccccccccccccccccccccccccccccccccccccccccccccccccccccccccccccccccccccccccccccccccccccccccccccccccccccccccccccccccccccccccccccccccccccccccccccccccccccccccccccccccccccccccccccccccccccccccccccccccccccccccccccccccccccccccccccccccccccccccccccccccccccccccccccccccccccccccccccccccccccccccccccccccccc" /></g><path
     style="display:inline;fill:#f0f0f0;fill-opacity:1;stroke-width:0.801571"
     d="m 78.991217,74.651715 c -1.403586,-0.204529 -3.390513,-1.189106 -3.944286,-1.954518 -1.018547,-1.407814 -0.630497,-3.985777 1.345511,-8.938738 1.823383,-4.570403 2.942231,-6.650086 4.357494,-8.09959 2.410335,-2.468644 4.561072,-3.147262 9.967864,-3.145122 3.127834,0.0016 6.555575,0.314264 6.86856,0.627253 0.05486,0.05483 -0.177103,0.67897 -0.515469,1.38691 -0.584898,1.223749 -0.646848,1.281478 -1.257288,1.171591 -0.353143,-0.06356 -2.280612,-0.181291 -4.283265,-0.261617 -3.969839,-0.159215 -4.943351,-0.02389 -6.605141,0.918272 -1.419558,0.804809 -2.236676,2.310447 -4.924716,9.074371 -1.328069,3.341828 -1.480006,4.16569 -0.95535,5.180262 0.521434,1.008344 1.731289,1.354606 4.673956,1.337693 2.275266,-0.01307 5.302819,-0.294946 6.63388,-0.617634 l 0.483496,-0.117206 -0.503296,1.350086 c -0.49215,1.320194 -0.525793,1.355752 -1.519173,1.60569 -2.307041,0.580457 -7.424652,0.831733 -9.822777,0.482297 z m 17.980341,-0.07102 c -1.626043,-0.350398 -2.721695,-1.080348 -3.198951,-2.131223 -0.5205,-1.146094 -0.503944,-1.641929 0.127591,-3.821231 1.92902,-6.656643 4.973378,-9.247487 10.856892,-9.239552 2.84717,0.004 4.75437,0.63163 5.68435,1.871098 0.61766,0.823213 0.58571,3.259868 -0.0686,5.231138 -1.29012,3.886888 -3.01573,6.213767 -5.44555,7.342995 -2.12095,0.985692 -5.413007,1.294705 -7.955744,0.746775 z m 5.918752,-2.816366 c 0.66597,-0.331866 1.36575,-0.896075 1.72291,-1.389113 1.32563,-1.829978 2.73693,-6.204301 2.33922,-7.250374 -0.37158,-0.977339 -1.07892,-1.245753 -3.06369,-1.162582 -1.58564,0.06645 -1.89233,0.14801 -2.70529,0.71949 -1.16054,0.81583 -1.827567,1.832702 -2.776883,4.233342 -0.908916,2.298472 -1.087329,3.080388 -0.898759,3.938942 0.334802,1.524346 3.183462,2.006114 5.382492,0.910295 z m 11.82615,2.78331 c -0.68151,-0.17314 -1.5277,-0.5203 -1.88043,-0.771464 -0.73833,-0.525734 -1.42878,-1.89678 -1.43556,-2.850617 -0.008,-1.161348 0.81784,-3.962957 1.6947,-5.747365 1.53772,-3.129283 3.75923,-4.973369 6.73738,-5.592742 1.82184,-0.378886 5.8422,-0.163961 7.06694,0.377796 2.6164,1.157364 2.74713,4.136313 0.39825,9.07543 -1.3429,2.823797 -3.19682,4.538324 -5.72198,5.291768 -1.66237,0.496004 -5.30755,0.61143 -6.8593,0.217194 z m 6.19699,-2.781394 c 1.4277,-0.711458 2.30214,-1.995734 3.30302,-4.851153 0.93895,-2.678736 0.96489,-3.531784 0.13267,-4.363998 -0.57356,-0.573564 -0.73618,-0.61959 -2.17384,-0.615278 -3.16633,0.0095 -4.49851,1.276389 -6.0899,5.791483 -0.69195,1.963191 -0.80496,2.868389 -0.44261,3.545435 0.63057,1.178237 3.37998,1.435677 5.27066,0.493511 z m 18.22553,2.781009 c -1.32848,-0.428143 -1.86914,-1.143288 -1.86914,-2.47234 0,-0.806548 0.38525,-1.99979 1.7197,-5.326476 0.94584,-2.357892 1.76726,-4.40637 1.82539,-4.552176 0.077,-0.19313 -0.21716,-0.265103 -1.08346,-0.265103 -0.65402,0 -1.18906,-0.02389 -1.18897,-0.05298 1e-4,-0.02918 0.18087,-0.530207 0.40172,-1.113429 l 0.40154,-1.060414 1.30459,-0.10604 1.30459,-0.10604 0.69496,-1.69666 c 1.16014,-2.83235 0.96187,-2.651026 2.89861,-2.651026 0.92906,0 1.68873,0.02389 1.68816,0.05298 -5.7e-4,0.02918 -0.3346,0.948795 -0.74229,2.043636 -0.40768,1.094841 -0.74125,2.07307 -0.74125,2.173843 0,0.100773 1.10773,0.183223 2.46163,0.183223 2.26033,0 2.44934,0.03038 2.31122,0.371143 -0.0827,0.204128 -0.24913,0.657456 -0.36977,1.00739 -0.12062,0.349942 -0.29396,0.719137 -0.38518,0.820439 -0.0912,0.101311 -1.25606,0.168066 -2.58855,0.148347 l -2.4227,-0.03583 -0.47991,1.230194 c -2.76348,7.083655 -3.0889,8.229092 -2.48118,8.733456 0.35245,0.292509 1.57207,0.34914 3.05309,0.141758 0.61238,-0.08575 1.11343,-0.107723 1.11343,-0.04882 0,0.05892 -0.20086,0.63195 -0.44635,1.273463 -0.52284,1.366253 -0.59152,1.39745 -3.37113,1.531024 -1.44487,0.06942 -2.29594,0.0064 -3.00875,-0.223518 z m 11.70042,0.0092 c -0.53149,-0.171199 -1.28692,-0.64811 -1.69665,-1.071131 -0.6724,-0.694184 -0.73747,-0.870722 -0.72609,-1.969723 0.0155,-1.49153 0.60499,-2.870961 1.69122,-3.957193 1.5525,-1.552498 3.2059,-1.986653 8.3679,-2.197282 3.46409,-0.141349 3.49934,-0.147697 3.73857,-0.672902 0.5429,-1.191903 0.54069,-1.680597 -0.01,-2.23134 -0.49909,-0.49909 -0.65025,-0.525726 -2.98325,-0.525726 -1.40197,0 -3.14641,0.142295 -4.06138,0.331281 -0.88213,0.182213 -1.63093,0.301511 -1.66402,0.265103 -0.0331,-0.03639 0.19164,-0.58929 0.49937,-1.228639 0.76813,-1.595847 1.3305,-1.758357 6.1797,-1.785739 3.31695,-0.01876 3.80015,0.02413 4.54608,0.403214 1.11279,0.565516 1.64333,1.34405 1.75969,2.582204 0.0847,0.901414 -0.15033,1.673182 -1.97468,6.484305 l -2.07082,5.461116 h -1.57837 -1.57837 l 0.0934,-0.636247 c 0.0514,-0.349934 0.0721,-0.636247 0.0461,-0.636247 -0.026,0 -0.78474,0.350215 -1.68608,0.778253 -1.4965,0.710689 -1.82523,0.784201 -3.78646,0.846771 -1.4688,0.04689 -2.45055,-0.02902 -3.10577,-0.240078 z m 7.29529,-2.724642 c 0.61823,-0.283035 1.31282,-0.789307 1.54355,-1.125045 0.4184,-0.608865 1.34481,-2.728995 1.34481,-3.07767 0,-0.242307 -2.66872,-0.22347 -4.64269,0.03278 -2.44543,0.31743 -3.57908,1.21547 -3.77955,2.993994 -0.11111,0.985772 0.2121,1.494577 1.1054,1.74013 0.91702,0.252078 3.31201,-0.05306 4.42848,-0.564177 z m 29.23257,2.800222 c -2.76074,-0.459669 -4.07558,-1.875106 -4.07558,-4.38738 0,-2.320739 1.6701,-6.157705 3.45713,-7.942586 2.06962,-2.067139 4.32701,-2.915898 7.75517,-2.915898 5.22195,0 6.88494,2.313445 4.97144,6.915951 l -0.60754,1.461295 -5.54171,0.05651 -5.5417,0.05651 -0.23162,0.664413 c -0.12738,0.365428 -0.23161,1.083972 -0.23161,1.596769 0,1.232944 0.63212,1.882368 2.04118,2.097085 1.15325,0.175736 4.67954,-0.164058 6.38909,-0.615654 0.61238,-0.161773 1.11343,-0.271925 1.11343,-0.244784 0,0.02717 -0.24838,0.591864 -0.55194,1.254939 -0.62436,1.363768 -0.84404,1.493927 -3.26554,1.934671 -1.77479,0.323032 -3.98984,0.349613 -5.6802,0.06813 z m 7.33466,-8.878933 c 1.08086,-0.004 1.13611,-0.03286 1.43155,-0.739945 0.5113,-1.223702 0.40443,-2.338029 -0.27592,-2.876989 -0.50679,-0.401475 -0.7778,-0.449577 -2.0678,-0.367048 -2.23417,0.142937 -3.55691,0.964867 -4.7381,2.944137 -0.77762,1.303041 -0.74417,1.322383 2.03405,1.175792 1.37058,-0.0723 2.99788,-0.133494 3.61622,-0.135947 z m -63.27335,-0.580319 c 2.00695,-5.107271 3.93,-9.954007 4.27343,-10.770527 l 0.62443,-1.484572 1.98216,-0.06132 c 1.55195,-0.04801 1.958,-0.0016 1.87087,0.21208 -0.92841,2.280965 -6.14048,15.528209 -7.07506,17.982265 l -1.25188,3.287273 -2.03648,0.06036 -2.03648,0.06036 z m 34.35419,7.945729 c 0.27449,-0.729037 1.9443,-4.999837 3.7107,-9.490684 1.76641,-4.490839 3.43602,-8.737784 3.71025,-9.437651 l 0.49861,-1.272493 2.03761,-0.06068 c 1.12069,-0.03343 2.03761,-0.01892 2.03761,0.03214 0,0.05106 -0.43953,1.175904 -0.97673,2.499649 -0.5372,1.323746 -1.64445,4.076964 -2.46053,6.118252 -0.81608,2.041295 -1.54089,3.853879 -1.61068,4.027964 -0.0698,0.174085 0.2501,0.02301 0.71085,-0.335706 0.46076,-0.358727 2.49844,-1.768785 4.52819,-3.133467 l 3.69047,-2.48123 2.22694,0.05988 2.22693,0.05988 -4.53886,3.054376 c -2.49638,1.679908 -4.61611,3.121893 -4.71051,3.204423 -0.13378,0.116941 2.527,5.261357 3.23469,6.254054 0.0831,0.116644 0.41024,0.665407 0.72685,1.219469 l 0.57567,1.00739 -2.28882,-0.0024 -2.28883,-0.0024 -1.76266,-3.284699 c -0.96946,-1.806588 -1.81539,-3.284708 -1.87986,-3.284708 -0.0644,0 -0.46423,0.195375 -0.88837,0.43417 -0.69686,0.392337 -0.88035,0.709086 -1.90426,3.287273 l -1.13309,2.853102 h -1.98562 -1.98561 z"
     id="path6"
     sodipodi:nodetypes="sssscssssssssscsssssscscssssssssssssscssssssssssssscsssssscccsssssscssscssssssccsscssssssssssssccccsssssssssssssssssscccssssssssscssssscsscscscccscssccsssssscccsscscccsssscccc"
     inkscape:label="Path-Cooltake" /><path
     d="m 202.45324,74.296332 c -1.04981,-0.144339 -2.2167,-0.330848 -2.5931,-0.414468 l -0.68435,-0.152042 0.64506,-1.277864 c 0.55472,-1.098897 0.70998,-1.259981 1.10853,-1.150166 1.1997,0.33056 4.93742,0.589852 7.34265,0.509367 2.10684,-0.07054 2.86424,-0.180699 3.61887,-0.526488 1.16844,-0.535401 1.98693,-1.400015 2.32401,-2.454946 0.55761,-1.745131 -0.37329,-2.882328 -3.27665,-4.002787 -2.41138,-0.930599 -3.60155,-1.570076 -4.60153,-2.47242 -1.05361,-0.950727 -1.44454,-1.811918 -1.44454,-3.182227 0,-3.356713 2.73303,-5.973047 7.06401,-6.76237 2.82663,-0.515161 10.53105,-0.0024 10.39458,0.691291 -0.021,0.106825 -0.27763,0.732555 -0.57029,1.390508 l -0.53212,1.196288 -1.40839,-0.295226 c -1.80945,-0.379288 -6.26275,-0.428392 -7.57947,-0.08357 -0.58709,0.153749 -1.37142,0.586044 -1.87595,1.033962 -0.71245,0.632511 -0.88602,0.939897 -0.97353,1.724114 -0.16186,1.450634 0.25916,1.820294 3.99159,3.50461 2.31443,1.044431 3.49313,1.706191 4.13006,2.31876 1.55776,1.498199 1.7169,3.446673 0.48935,5.991747 -1.15636,2.39749 -3.68436,4.04297 -6.93323,4.512835 -1.90437,0.275419 -6.27722,0.225337 -8.63556,-0.09891 z m 20.14781,-0.0056 c -2.35912,-0.886024 -2.3619,-2.149917 -0.0179,-8.135989 0.88465,-2.259155 1.60845,-4.187196 1.60845,-4.284547 0,-0.09734 -0.55591,-0.205403 -1.23536,-0.240127 l -1.23536,-0.06316 0.48894,-1.113438 0.48894,-1.11343 h 1.34771 1.34771 l 0.857,-2.173843 0.85699,-2.173843 1.82899,-0.06124 c 1.00595,-0.03367 1.829,-0.03343 1.829,5.45e-4 0,0.03399 -0.37276,1.039805 -0.82834,2.235115 l -0.82832,2.173299 h 2.3272 c 2.61859,0 2.42015,-0.188089 1.7748,1.682167 l -0.25113,0.727802 -2.3461,-0.05411 -2.3461,-0.05419 -1.43394,3.658064 c -1.89262,4.828148 -2.03198,5.307655 -1.72235,5.925922 0.34907,0.697022 1.27495,0.893776 2.85372,0.606445 0.73428,-0.133638 1.38554,-0.192481 1.44725,-0.130769 0.0617,0.06172 -0.0619,0.608833 -0.27463,1.215823 -0.4783,1.364529 -0.76694,1.49452 -3.56808,1.606972 -1.54379,0.06196 -2.35163,-0.0016 -2.96915,-0.233473 z m 12.30077,0.11226 c -1.78633,-0.459236 -2.39755,-1.049432 -2.57765,-2.488981 -0.1261,-1.007839 0.10264,-1.742767 2.40452,-7.725729 l 1.86529,-4.848219 h 1.96401 c 1.08021,0 1.96401,0.0323 1.96401,0.07174 0,0.03944 -0.90665,2.388111 -2.01478,5.21921 -1.12711,2.87957 -2.01478,5.462126 -2.01478,5.861661 0,1.118985 0.66991,1.437328 2.76899,1.31581 1.45048,-0.08396 1.83197,-0.190509 2.59401,-0.724483 0.99008,-0.693768 1.54537,-1.844045 4.07111,-8.43342 l 1.26895,-3.310534 h 1.98799 c 1.50532,0 1.96236,0.06437 1.88241,0.265103 -0.0581,0.145806 -1.24685,3.128209 -2.64171,6.62757 -1.39487,3.499352 -2.65336,6.720351 -2.79666,7.157776 l -0.26053,0.795302 h -1.65081 c -1.64649,0 -1.65053,-0.0016 -1.54944,-0.530199 0.12445,-0.651019 0.11538,-0.651107 -1.1591,-0.01098 -1.77938,0.893735 -4.34146,1.211942 -6.10583,0.75835 z m 17.71112,-0.19398 c -1.50964,-0.540155 -2.46595,-1.563175 -2.65792,-2.843323 -0.31963,-2.131384 1.6385,-7.258061 3.60294,-9.433067 1.8185,-2.013409 3.75813,-2.800198 6.89976,-2.798812 0.99149,4.41e-4 2.37454,0.135298 3.07345,0.299684 0.6989,0.164386 1.28896,0.28067 1.31122,0.25841 0.0223,-0.02228 0.5678,-1.445432 1.21231,-3.162605 1.64294,-4.377304 1.28423,-3.975862 3.55271,-3.975862 1.745,0 1.91078,0.03455 1.78212,0.371144 -0.078,0.204127 -0.98197,2.566188 -2.00876,5.249028 -1.02681,2.682841 -2.80645,7.383114 -3.95476,10.445049 l -2.08784,5.567156 h -1.57099 c -1.5679,0 -1.57078,-8.01e-4 -1.46802,-0.538607 0.0567,-0.296237 0.0439,-0.506392 -0.0283,-0.467019 -1.84263,1.005073 -2.69256,1.257816 -4.53561,1.348763 -1.58405,0.07815 -2.18052,0.01707 -3.12231,-0.319939 z m 6.9288,-2.767719 c 0.48127,-0.27049 1.05275,-0.828928 1.28637,-1.257015 0.67309,-1.233329 3.10501,-8.075855 2.93155,-8.248329 -0.0868,-0.08631 -1.27085,-0.154647 -2.63122,-0.15185 -2.83102,0.0056 -3.3486,0.18776 -4.55984,1.602829 -0.75996,0.887843 -1.99147,3.687192 -2.45166,5.572879 -0.31487,1.290232 -0.0192,2.335103 0.79081,2.794315 0.86711,0.491611 3.52152,0.312412 4.63399,-0.312829 z m 19.61956,2.942261 c -2.45678,-0.483676 -3.77398,-2.052694 -3.56222,-4.243226 0.13466,-1.392945 1.16966,-4.453037 2.10202,-6.214897 1.23238,-2.328763 3.46194,-4.010707 6.04309,-4.558804 1.42382,-0.302337 4.57633,-0.307972 5.96269,-0.01066 3.20549,0.687459 4.06667,2.823652 2.77229,6.876762 -1.25743,3.937386 -2.81295,6.156694 -5.15143,7.349704 -1.76136,0.898585 -5.70592,1.285535 -8.16644,0.801114 z m 5.49714,-2.644919 c 0.50876,-0.179503 1.19784,-0.585106 1.53128,-0.90135 1.19711,-1.135328 2.8991,-5.312424 2.8991,-7.11506 0,-0.801739 -0.1025,-1.037385 -0.65252,-1.500196 -0.65048,-0.547352 -1.04583,-0.621666 -2.95288,-0.555071 -2.21141,0.07719 -3.7039,1.48135 -4.85309,4.565778 -1.3568,3.641687 -1.38968,4.67516 -0.17235,5.417422 0.84326,0.514167 2.87276,0.556915 4.20046,0.08848 z m -17.74407,2.07577 c 0.0675,-0.204127 1.35148,-3.520561 2.85326,-7.369855 l 2.73048,-6.998713 2.03619,-0.06068 2.03618,-0.06068 -0.51629,1.227124 c -0.46679,1.109462 -2.42257,6.116048 -4.51679,11.562447 l -0.79369,2.064124 -1.97605,0.004 c -1.78821,0.0032 -1.96438,-0.03158 -1.85329,-0.367472 z m 7.65303,-17.900929 c -0.4929,-0.38772 -0.56306,-0.568923 -0.46183,-1.192753 0.20702,-1.275724 1.37423,-2.167551 2.83684,-2.167551 1.12832,0 1.75439,0.486024 1.75439,1.361956 0,1.869583 -2.6579,3.155832 -4.1294,1.998348 z"
     style="display:inline;fill:#4984f6;fill-opacity:1;stroke-width:0.801571"
     id="path1-4"
     inkscape:label="path-Studio" /><g
     inkscape:groupmode="layer"
     id="layer3"
     inkscape:label="Layer 2"><path
       d="m 49.072516,35.336532 h -7.950952 m 20.255995,10.727476 c 0,0.21091 -7.950949,0.209776 -7.950949,0 h 7.950949 m -26.313863,3.786169 h -7.950953 m 21.454951,7.130616 c 0,0.210347 -8.014054,0.210339 -8.014054,0 h 8.014054 M 15.691137,57.170102 H 7.6770801 m 14.3630949,4.718296 c 0,0.21034 -7.950953,0.210346 -7.950953,0 h 7.950953 m 41.079917,0 c 0,0.210344 -7.950949,0.210342 -7.950949,0 h 7.950949"
       style="display:inline;fill:none;fill-opacity:1;stroke:#ffffff;stroke-width:0.17;stroke-dasharray:none;stroke-opacity:1"
       id="path1-7"
       sodipodi:nodetypes="cccccccccccccccccc" /></g></svg>
